<?xml version="1.0" standalone="no"?>
<!DOCTYPE svg PUBLIC "-//W3C//DTD SVG 20010904//EN"
 "http://www.w3.org/TR/2001/REC-SVG-20010904/DTD/svg10.dtd">
<svg version="1.0" xmlns="http://www.w3.org/2000/svg"
 width="290.000000pt" height="207.000000pt" viewBox="0 0 290.000000 207.000000"
 preserveAspectRatio="xMidYMid meet">
<g transform="translate(0.000000,207.000000) scale(0.100000,-0.100000)"
fill="#2f4d74" stroke="none">
<path d="M708 1818 c-21 -29 -146 -226 -235 -371 l-31 -52 26 -46 c59 -99 197
-319 202 -319 6 0 83 132 82 143 0 5 -30 55 -66 112 -77 119 -78 96 12 232 26
40 78 121 116 180 38 60 76 118 84 131 l14 22 -90 0 c-90 0 -90 0 -114 -32z"/>
<path d="M1054 1693 c-37 -87 -100 -234 -139 -328 -40 -93 -98 -223 -128 -287
l-56 -118 92 0 92 0 54 135 55 135 157 0 156 0 54 -132 54 -133 93 -3 c50 -1
92 -1 92 1 0 2 -14 35 -31 73 -79 172 -259 588 -326 752 l-25 62 -63 0 -63 0
-68 -157z m198 -231 c21 -51 36 -97 33 -102 -10 -16 -195 -13 -201 3 -4 11 74
229 93 260 3 6 13 -8 21 -29 8 -21 32 -81 54 -132z"/>
<path d="M1382 1842 c2 -4 16 -40 32 -80 l29 -72 159 0 c178 0 206 -7 234 -62
21 -41 21 -121 0 -153 -34 -52 -72 -65 -183 -65 l-102 0 33 -72 33 -73 80 -3
c104 -4 175 21 237 83 54 55 76 115 76 210 0 92 -21 153 -73 208 -71 75 -120
87 -358 87 -110 0 -199 -3 -197 -8z"/>
<path d="M1980 1844 c0 -6 63 -108 126 -202 16 -26 58 -93 93 -150 l62 -103
-107 -162 c-58 -89 -123 -187 -145 -217 l-38 -55 86 -3 c68 -2 89 0 104 14 16
14 189 275 246 371 28 48 28 64 1 106 -13 18 -75 117 -138 220 l-115 187 -87
0 c-49 0 -88 -3 -88 -6z"/>
<path d="M853 394 c-3 -8 -1 -20 5 -26 16 -16 42 -2 42 22 0 24 -38 28 -47 4z"/>
<path d="M1540 275 l0 -135 25 0 c22 0 25 4 25 34 0 50 15 52 56 6 23 -25 45
-40 60 -40 13 0 24 3 24 6 0 3 -19 28 -41 56 l-42 49 39 40 38 39 -31 0 c-25
0 -39 -9 -67 -42 l-36 -42 0 82 c0 81 0 82 -25 82 l-25 0 0 -135z"/>
<path d="M2207 388 c-4 -12 -4 -33 0 -47 5 -21 3 -23 -13 -16 -37 17 -77 9
-102 -20 -21 -24 -23 -36 -19 -79 7 -73 59 -107 118 -76 13 7 19 7 19 0 0 -5
9 -10 20 -10 19 0 20 7 20 135 0 126 -1 135 -19 135 -11 0 -21 -9 -24 -22z
m-6 -109 c15 -29 3 -86 -21 -99 -40 -22 -67 11 -61 74 4 47 61 64 82 25z"/>
<path d="M977 383 c-4 -3 -7 -17 -7 -30 0 -16 -6 -23 -20 -23 -11 0 -20 -5
-20 -11 0 -6 9 -13 20 -16 18 -5 20 -14 20 -73 0 -77 11 -93 61 -88 35 3 54
28 21 28 -31 0 -43 24 -40 77 3 44 5 48 31 51 35 4 35 30 0 34 -22 2 -29 9
-31 31 -3 25 -20 35 -35 20z"/>
<path d="M188 328 c-16 -5 -28 -16 -28 -25 0 -12 8 -13 40 -8 27 5 46 3 55 -5
22 -18 18 -30 -9 -30 -31 0 -78 -18 -88 -33 -4 -7 -8 -25 -8 -40 0 -22 7 -31
32 -41 21 -9 40 -11 55 -5 13 5 36 6 53 3 l30 -6 0 76 c0 68 -3 80 -25 101
-26 27 -60 31 -107 13z m82 -110 c0 -28 -21 -43 -57 -39 -16 1 -17 23 -1 39
16 16 58 15 58 0z"/>
<path d="M433 325 c-13 -9 -23 -11 -23 -6 0 6 -9 11 -20 11 -19 0 -20 -7 -20
-95 0 -88 1 -95 20 -95 18 0 20 7 20 58 0 45 5 63 20 80 40 43 60 19 60 -71 0
-64 1 -68 21 -65 18 3 21 10 22 65 2 72 24 106 55 87 13 -9 18 -28 20 -83 3
-68 4 -71 27 -71 24 0 25 2 25 75 0 68 -3 79 -26 102 -21 21 -31 24 -57 18
-39 -9 -54 -9 -92 -1 -20 5 -37 2 -52 -9z"/>
<path d="M772 324 c-12 -8 -22 -10 -22 -5 0 6 -9 11 -20 11 -19 0 -20 -7 -20
-95 0 -88 1 -95 20 -95 17 0 20 7 20 53 0 59 20 97 51 97 15 0 20 6 17 22 -4
28 -18 32 -46 12z"/>
<path d="M1131 328 c-14 -7 -26 -19 -29 -27 -4 -11 4 -13 38 -7 27 4 47 2 56
-5 23 -19 16 -26 -27 -32 -47 -6 -79 -31 -79 -62 0 -45 63 -70 111 -45 13 7
19 7 19 0 0 -5 9 -10 20 -10 18 0 20 7 20 74 0 55 -4 79 -17 95 -22 27 -80 36
-112 19z m79 -112 c0 -13 -25 -46 -35 -46 -31 0 -44 27 -23 48 17 17 58 15 58
-2z"/>
<path d="M1383 325 c-13 -9 -23 -11 -23 -6 0 6 -9 11 -20 11 -19 0 -20 -7 -20
-95 0 -88 1 -95 20 -95 18 0 20 7 20 63 0 71 21 104 58 93 24 -8 32 -34 32
-103 0 -46 3 -53 20 -53 18 0 20 7 20 78 0 47 -5 85 -12 95 -19 25 -69 31 -95
12z"/>
<path d="M1794 330 c-26 -10 -38 -26 -29 -40 4 -6 15 -5 30 2 13 6 35 8 49 4
33 -8 34 -36 2 -36 -31 0 -78 -18 -88 -33 -13 -20 -9 -55 8 -71 19 -19 75 -21
93 -3 11 10 14 10 18 0 3 -7 13 -13 24 -13 17 0 19 8 19 78 0 42 -4 82 -8 88
-20 30 -75 41 -118 24z m76 -120 c0 -23 -32 -43 -54 -34 -33 13 -9 54 31 54
16 0 23 -6 23 -20z"/>
<path d="M2333 321 c-51 -32 -58 -116 -13 -161 24 -24 95 -27 124 -5 28 21 8
39 -27 26 -36 -14 -77 2 -77 29 0 18 6 20 66 20 l66 0 -7 33 c-14 66 -75 93
-132 58z m75 -33 c21 -21 13 -28 -28 -28 -43 0 -43 0 -34 24 7 19 45 21 62 4z"/>
<path d="M850 235 c0 -95 0 -95 25 -95 25 0 25 0 25 95 0 95 0 95 -25 95 -25
0 -25 0 -25 -95z"/>
<path d="M2501 278 c12 -29 28 -72 36 -96 13 -37 19 -43 40 -40 21 3 30 16 59
91 19 49 34 91 34 93 0 2 -11 4 -23 4 -20 0 -27 -9 -42 -60 -10 -34 -21 -63
-25 -65 -3 -2 -16 25 -29 61 -19 54 -26 64 -47 64 l-24 0 21 -52z"/>
<path d="M1990 185 c-16 -19 -5 -47 17 -43 11 2 18 12 18 27 0 29 -17 37 -35
16z"/>
</g>
</svg>
